<?xml version="1.0" encoding="UTF-8" standalone="no"?>
<!DOCTYPE svg PUBLIC "-//W3C//DTD SVG 1.1//EN"
 "http://www.w3.org/Graphics/SVG/1.1/DTD/svg11.dtd">
<!-- Generated by graphviz version 5.0.0 (20220707.1540)
 -->
<!-- Title: UmlClassDiagram Pages: 1 -->
<svg width="508pt" height="540pt"
 viewBox="0.00 0.00 507.96 539.60" xmlns="http://www.w3.org/2000/svg" xmlns:xlink="http://www.w3.org/1999/xlink">
<g id="graph0" class="graph" transform="scale(1 1) rotate(0) translate(4 535.6)">
<title>UmlClassDiagram</title>
<polygon fill="white" stroke="transparent" points="-4,4 -4,-535.6 503.96,-535.6 503.96,4 -4,4"/>
<!-- 0 -->
<g id="node1" class="node">
<title>0</title>
<polygon fill="#f2f2f2" stroke="black" points="0,-0.5 0,-293.3 240.96,-293.3 240.96,-0.5 0,-0.5"/>
<text text-anchor="middle" x="120.48" y="-276.7" font-family="Times,serif" font-size="14.00">Optimisestore</text>
<text text-anchor="middle" x="120.48" y="-259.9" font-family="Times,serif" font-size="14.00">contracts/Optimisestore.sol</text>
<polyline fill="none" stroke="black" points="0,-251.7 240.96,-251.7 "/>
<text text-anchor="start" x="8" y="-235.1" font-family="Times,serif" font-size="14.00">Public:</text>
<text text-anchor="start" x="8" y="-218.3" font-family="Times,serif" font-size="14.00"> &#160;&#160;flag1: bool</text>
<text text-anchor="start" x="8" y="-201.5" font-family="Times,serif" font-size="14.00"> &#160;&#160;flag2: bool</text>
<text text-anchor="start" x="8" y="-184.7" font-family="Times,serif" font-size="14.00"> &#160;&#160;flag3: bool</text>
<text text-anchor="start" x="8" y="-167.9" font-family="Times,serif" font-size="14.00"> &#160;&#160;index: uint8</text>
<text text-anchor="start" x="8" y="-151.1" font-family="Times,serif" font-size="14.00"> &#160;&#160;admin: address</text>
<text text-anchor="start" x="8" y="-134.3" font-family="Times,serif" font-size="14.00"> &#160;&#160;admin2: address</text>
<text text-anchor="start" x="8" y="-117.5" font-family="Times,serif" font-size="14.00"> &#160;&#160;number: uint256</text>
<text text-anchor="start" x="8" y="-100.7" font-family="Times,serif" font-size="14.00"> &#160;&#160;topPayments: payments[8]</text>
<text text-anchor="start" x="8" y="-83.9" font-family="Times,serif" font-size="14.00"> &#160;&#160;balances: mapping(address=&gt;uint256)</text>
<polyline fill="none" stroke="black" points="0,-75.7 240.96,-75.7 "/>
<text text-anchor="start" x="8" y="-59.1" font-family="Times,serif" font-size="14.00">Public:</text>
<text text-anchor="start" x="8" y="-42.3" font-family="Times,serif" font-size="14.00"> &#160;&#160;&#160;constructor()</text>
<text text-anchor="start" x="8" y="-25.5" font-family="Times,serif" font-size="14.00"> &#160;&#160;&#160;setNumber(newNumber: uint256)</text>
<text text-anchor="start" x="8" y="-8.7" font-family="Times,serif" font-size="14.00"> &#160;&#160;&#160;increment()</text>
</g>
<!-- 1 -->
<g id="node2" class="node">
<title>1</title>
<polygon fill="#f2f2f2" stroke="black" points="36.08,-330.3 36.08,-531.1 204.88,-531.1 204.88,-330.3 36.08,-330.3"/>
<text text-anchor="middle" x="120.48" y="-514.5" font-family="Times,serif" font-size="14.00">&lt;&lt;Struct&gt;&gt;</text>
<text text-anchor="middle" x="120.48" y="-497.7" font-family="Times,serif" font-size="14.00">payments</text>
<text text-anchor="middle" x="120.48" y="-480.9" font-family="Times,serif" font-size="14.00">contracts/Optimisestore.sol</text>
<polyline fill="none" stroke="black" points="36.08,-472.7 204.88,-472.7 "/>
<text text-anchor="start" x="44.08" y="-456.1" font-family="Times,serif" font-size="14.00">valid: bool</text>
<text text-anchor="start" x="44.08" y="-439.3" font-family="Times,serif" font-size="14.00">checked: bool</text>
<text text-anchor="start" x="44.08" y="-422.5" font-family="Times,serif" font-size="14.00">paymentType: uint8</text>
<text text-anchor="start" x="44.08" y="-405.7" font-family="Times,serif" font-size="14.00">amount: uint256</text>
<text text-anchor="start" x="44.08" y="-388.9" font-family="Times,serif" font-size="14.00">finalAmount: uint256</text>
<text text-anchor="start" x="44.08" y="-372.1" font-family="Times,serif" font-size="14.00">initialAmount: uint256</text>
<text text-anchor="start" x="44.08" y="-355.3" font-family="Times,serif" font-size="14.00">receiver: address</text>
<text text-anchor="start" x="44.08" y="-338.5" font-family="Times,serif" font-size="14.00">sender: address</text>
</g>
<!-- 0&#45;&gt;1 -->
<g id="edge2" class="edge">
<title>0&#45;&gt;1</title>
<path fill="none" stroke="black" d="M113.73,-293.34C113.74,-302.24 113.79,-311.11 113.88,-319.82"/>
<polygon fill="black" stroke="black" points="110.38,-320 113.99,-329.96 117.38,-319.92 110.38,-320"/>
</g>
<!-- 1&#45;&gt;0 -->
<g id="edge1" class="edge">
<title>1&#45;&gt;0</title>
<path fill="none" stroke="black" d="M126.97,-329.96C127.07,-321.96 127.14,-313.77 127.19,-305.5"/>
<polygon fill="black" stroke="black" points="127.19,-305.34 123.21,-299.33 127.23,-293.34 131.21,-299.35 127.19,-305.34"/>
</g>
<!-- 2 -->
<g id="node3" class="node">
<title>2</title>
<polygon fill="#f2f2f2" stroke="black" points="259,-0.5 259,-293.3 499.96,-293.3 499.96,-0.5 259,-0.5"/>
<text text-anchor="middle" x="379.48" y="-276.7" font-family="Times,serif" font-size="14.00">Store</text>
<text text-anchor="middle" x="379.48" y="-259.9" font-family="Times,serif" font-size="14.00">contracts/Store.sol</text>
<polyline fill="none" stroke="black" points="259,-251.7 499.96,-251.7 "/>
<text text-anchor="start" x="267" y="-235.1" font-family="Times,serif" font-size="14.00">Public:</text>
<text text-anchor="start" x="267" y="-218.3" font-family="Times,serif" font-size="14.00"> &#160;&#160;index: uint8</text>
<text text-anchor="start" x="267" y="-201.5" font-family="Times,serif" font-size="14.00"> &#160;&#160;number: uint256</text>
<text text-anchor="start" x="267" y="-184.7" font-family="Times,serif" font-size="14.00"> &#160;&#160;flag1: bool</text>
<text text-anchor="start" x="267" y="-167.9" font-family="Times,serif" font-size="14.00"> &#160;&#160;admin: address</text>
<text text-anchor="start" x="267" y="-151.1" font-family="Times,serif" font-size="14.00"> &#160;&#160;balances: mapping(address=&gt;uint256)</text>
<text text-anchor="start" x="267" y="-134.3" font-family="Times,serif" font-size="14.00"> &#160;&#160;flag2: bool</text>
<text text-anchor="start" x="267" y="-117.5" font-family="Times,serif" font-size="14.00"> &#160;&#160;admin2: address</text>
<text text-anchor="start" x="267" y="-100.7" font-family="Times,serif" font-size="14.00"> &#160;&#160;flag3: bool</text>
<text text-anchor="start" x="267" y="-83.9" font-family="Times,serif" font-size="14.00"> &#160;&#160;topPayments: payments[8]</text>
<polyline fill="none" stroke="black" points="259,-75.7 499.96,-75.7 "/>
<text text-anchor="start" x="267" y="-59.1" font-family="Times,serif" font-size="14.00">Public:</text>
<text text-anchor="start" x="267" y="-42.3" font-family="Times,serif" font-size="14.00"> &#160;&#160;&#160;constructor()</text>
<text text-anchor="start" x="267" y="-25.5" font-family="Times,serif" font-size="14.00"> &#160;&#160;&#160;setNumber(newNumber: uint256)</text>
<text text-anchor="start" x="267" y="-8.7" font-family="Times,serif" font-size="14.00"> &#160;&#160;&#160;increment()</text>
</g>
<!-- 3 -->
<g id="node4" class="node">
<title>3</title>
<polygon fill="#f2f2f2" stroke="black" points="307.12,-330.3 307.12,-531.1 451.84,-531.1 451.84,-330.3 307.12,-330.3"/>
<text text-anchor="middle" x="379.48" y="-514.5" font-family="Times,serif" font-size="14.00">&lt;&lt;Struct&gt;&gt;</text>
<text text-anchor="middle" x="379.48" y="-497.7" font-family="Times,serif" font-size="14.00">payments</text>
<text text-anchor="middle" x="379.48" y="-480.9" font-family="Times,serif" font-size="14.00">contracts/Store.sol</text>
<polyline fill="none" stroke="black" points="307.12,-472.7 451.84,-472.7 "/>
<text text-anchor="start" x="315.12" y="-456.1" font-family="Times,serif" font-size="14.00">valid: bool</text>
<text text-anchor="start" x="315.12" y="-439.3" font-family="Times,serif" font-size="14.00">amount: uint256</text>
<text text-anchor="start" x="315.12" y="-422.5" font-family="Times,serif" font-size="14.00">sender: address</text>
<text text-anchor="start" x="315.12" y="-405.7" font-family="Times,serif" font-size="14.00">paymentType: uint8</text>
<text text-anchor="start" x="315.12" y="-388.9" font-family="Times,serif" font-size="14.00">finalAmount: uint256</text>
<text text-anchor="start" x="315.12" y="-372.1" font-family="Times,serif" font-size="14.00">receiver: address</text>
<text text-anchor="start" x="315.12" y="-355.3" font-family="Times,serif" font-size="14.00">initialAmount: uint256</text>
<text text-anchor="start" x="315.12" y="-338.5" font-family="Times,serif" font-size="14.00">checked: bool</text>
</g>
<!-- 2&#45;&gt;3 -->
<g id="edge4" class="edge">
<title>2&#45;&gt;3</title>
<path fill="none" stroke="black" d="M372.73,-293.34C372.74,-302.24 372.79,-311.11 372.88,-319.82"/>
<polygon fill="black" stroke="black" points="369.38,-320 372.99,-329.96 376.38,-319.92 369.38,-320"/>
</g>
<!-- 3&#45;&gt;2 -->
<g id="edge3" class="edge">
<title>3&#45;&gt;2</title>
<path fill="none" stroke="black" d="M385.97,-329.96C386.07,-321.96 386.14,-313.77 386.19,-305.5"/>
<polygon fill="black" stroke="black" points="386.19,-305.34 382.21,-299.33 386.23,-293.34 390.21,-299.35 386.19,-305.34"/>
</g>
</g>
</svg>
