<?xml version="1.0" encoding="UTF-8" standalone="no"?>
<!DOCTYPE svg PUBLIC "-//W3C//DTD SVG 1.1//EN"
 "http://www.w3.org/Graphics/SVG/1.1/DTD/svg11.dtd">
<!-- Generated by graphviz version 5.0.0 (20220707.1540)
 -->
<!-- Title: StorageDiagram Pages: 1 -->
<svg width="2027pt" height="858pt"
 viewBox="0.00 0.00 2027.08 858.40" xmlns="http://www.w3.org/2000/svg" xmlns:xlink="http://www.w3.org/1999/xlink">
<g id="graph0" class="graph" transform="scale(1 1) rotate(0) translate(4 854.4)">
<title>StorageDiagram</title>
<polygon fill="white" stroke="transparent" points="-4,4 -4,-854.4 2023.08,-854.4 2023.08,4 -4,4"/>
<!-- 6 -->
<g id="node1" class="node">
<title>6</title>
<polygon fill="#f2f2f2" stroke="black" points="0,-412.9 0,-586.5 943.74,-586.5 943.74,-412.9 0,-412.9"/>
<text text-anchor="middle" x="471.87" y="-569.9" font-family="Courier New" font-size="14.00">Optimisestore &lt;&lt;Contract&gt;&gt;</text>
<polyline fill="none" stroke="black" points="0,-561.7 943.74,-561.7 "/>
<text text-anchor="middle" x="24.8" y="-545.1" font-family="Courier New" font-size="14.00">slot</text>
<polyline fill="none" stroke="black" points="0,-536.9 49.61,-536.9 "/>
<text text-anchor="middle" x="24.8" y="-520.3" font-family="Courier New" font-size="14.00">0</text>
<polyline fill="none" stroke="black" points="0,-512.1 49.61,-512.1 "/>
<text text-anchor="middle" x="24.8" y="-495.5" font-family="Courier New" font-size="14.00">1</text>
<polyline fill="none" stroke="black" points="0,-487.3 49.61,-487.3 "/>
<text text-anchor="middle" x="24.8" y="-470.7" font-family="Courier New" font-size="14.00">2</text>
<polyline fill="none" stroke="black" points="0,-462.5 49.61,-462.5 "/>
<text text-anchor="middle" x="24.8" y="-445.9" font-family="Courier New" font-size="14.00">3&#45;50</text>
<polyline fill="none" stroke="black" points="0,-437.7 49.61,-437.7 "/>
<text text-anchor="middle" x="24.8" y="-421.1" font-family="Courier New" font-size="14.00">51</text>
<polyline fill="none" stroke="black" points="49.61,-412.9 49.61,-561.7 "/>
<text text-anchor="middle" x="496.67" y="-545.1" font-family="Courier New" font-size="14.00">type: &lt;inherited contract&gt;.variable (bytes)</text>
<polyline fill="none" stroke="black" points="49.61,-536.9 943.74,-536.9 "/>
<text text-anchor="middle" x="120.62" y="-520.3" font-family="Courier New" font-size="14.00">unallocated (8)</text>
<polyline fill="none" stroke="black" points="191.63,-512.1 191.63,-536.9 "/>
<text text-anchor="middle" x="279.44" y="-520.3" font-family="Courier New" font-size="14.00">address: admin (20)</text>
<polyline fill="none" stroke="black" points="367.25,-512.1 367.25,-536.9 "/>
<text text-anchor="middle" x="442.46" y="-520.3" font-family="Courier New" font-size="14.00">uint8: index (1)</text>
<polyline fill="none" stroke="black" points="517.67,-512.1 517.67,-536.9 "/>
<text text-anchor="middle" x="588.68" y="-520.3" font-family="Courier New" font-size="14.00">bool: flag3 (1)</text>
<polyline fill="none" stroke="black" points="659.69,-512.1 659.69,-536.9 "/>
<text text-anchor="middle" x="730.7" y="-520.3" font-family="Courier New" font-size="14.00">bool: flag2 (1)</text>
<polyline fill="none" stroke="black" points="801.71,-512.1 801.71,-536.9 "/>
<text text-anchor="middle" x="872.73" y="-520.3" font-family="Courier New" font-size="14.00">bool: flag1 (1)</text>
<polyline fill="none" stroke="black" points="49.61,-512.1 943.74,-512.1 "/>
<text text-anchor="middle" x="264.32" y="-495.5" font-family="Courier New" font-size="14.00">unallocated (12)</text>
<polyline fill="none" stroke="black" points="479.03,-487.3 479.03,-512.1 "/>
<text text-anchor="middle" x="711.04" y="-495.5" font-family="Courier New" font-size="14.00">address: admin2 (20)</text>
<polyline fill="none" stroke="black" points="49.61,-487.3 943.74,-487.3 "/>
<text text-anchor="middle" x="496.62" y="-470.7" font-family="Courier New" font-size="14.00">uint256: number (32)</text>
<polyline fill="none" stroke="black" points="49.61,-462.5 943.74,-462.5 "/>
<text text-anchor="middle" x="496.33" y="-445.9" font-family="Courier New" font-size="14.00">payments[8]: topPayments (1536)</text>
<polyline fill="none" stroke="black" points="49.61,-437.7 943.74,-437.7 "/>
<text text-anchor="middle" x="496.63" y="-421.1" font-family="Courier New" font-size="14.00">mapping(address=&gt;uint256): balances (32)</text>
</g>
<!-- 5 -->
<g id="node6" class="node">
<title>5</title>
<polygon fill="#f2f2f2" stroke="black" points="979.74,-362.9 979.74,-536.5 1281.38,-536.5 1281.38,-362.9 979.74,-362.9"/>
<text text-anchor="middle" x="1130.56" y="-519.9" font-family="Courier New" font-size="14.00">payments[8]: topPayments &lt;&lt;Array&gt;&gt;</text>
<polyline fill="none" stroke="black" points="979.74,-511.7 1281.38,-511.7 "/>
<text text-anchor="middle" x="1019.24" y="-495.1" font-family="Courier New" font-size="14.00">slot</text>
<polyline fill="none" stroke="black" points="979.74,-486.9 1058.74,-486.9 "/>
<text text-anchor="middle" x="1019.24" y="-470.3" font-family="Courier New" font-size="14.00">3&#45;8</text>
<polyline fill="none" stroke="black" points="979.74,-462.1 1058.74,-462.1 "/>
<text text-anchor="middle" x="1019.24" y="-445.5" font-family="Courier New" font-size="14.00">9&#45;15</text>
<polyline fill="none" stroke="black" points="979.74,-437.3 1058.74,-437.3 "/>
<text text-anchor="middle" x="1019.24" y="-420.7" font-family="Courier New" font-size="14.00">15&#45;39</text>
<polyline fill="none" stroke="black" points="979.74,-412.5 1058.74,-412.5 "/>
<text text-anchor="middle" x="1019.24" y="-395.9" font-family="Courier New" font-size="14.00">39&#45;45</text>
<polyline fill="none" stroke="black" points="979.74,-387.7 1058.74,-387.7 "/>
<text text-anchor="middle" x="1019.24" y="-371.1" font-family="Courier New" font-size="14.00">45&#45;51</text>
<polyline fill="none" stroke="black" points="1058.74,-362.9 1058.74,-511.7 "/>
<text text-anchor="middle" x="1169.66" y="-495.1" font-family="Courier New" font-size="14.00">type: variable (bytes)</text>
<polyline fill="none" stroke="black" points="1058.74,-486.9 1280.57,-486.9 "/>
<text text-anchor="middle" x="1169.55" y="-470.3" font-family="Courier New" font-size="14.00">payments (192)</text>
<polyline fill="none" stroke="black" points="1058.74,-462.1 1280.57,-462.1 "/>
<text text-anchor="middle" x="1169.55" y="-445.5" font-family="Courier New" font-size="14.00">payments (192)</text>
<polyline fill="none" stroke="black" points="1058.74,-437.3 1280.57,-437.3 "/>
<text text-anchor="middle" x="1169.25" y="-420.7" font-family="Courier New" font-size="14.00">&#45;&#45;&#45;&#45; (800)</text>
<polyline fill="none" stroke="black" points="1058.74,-412.5 1280.57,-412.5 "/>
<text text-anchor="middle" x="1169.55" y="-395.9" font-family="Courier New" font-size="14.00">payments (192)</text>
<polyline fill="none" stroke="black" points="1058.74,-387.7 1280.57,-387.7 "/>
<text text-anchor="middle" x="1169.55" y="-371.1" font-family="Courier New" font-size="14.00">payments (192)</text>
</g>
<!-- 6&#45;&gt;5 -->
<g id="edge1" class="edge">
<title>6:45&#45;&gt;5</title>
<path fill="none" stroke="black" d="M943.74,-449.7C952.14,-449.7 960.76,-449.7 969.46,-449.7"/>
<polygon fill="black" stroke="black" points="969.71,-453.2 979.71,-449.7 969.71,-446.2 969.71,-453.2"/>
</g>
<!-- 1 -->
<g id="node2" class="node">
<title>1</title>
<polygon fill="#f2f2f2" stroke="black" points="1317.38,-651.5 1317.38,-849.9 2019.08,-849.9 2019.08,-651.5 1317.38,-651.5"/>
<text text-anchor="middle" x="1668.23" y="-833.3" font-family="Courier New" font-size="14.00">payments &lt;&lt;Struct&gt;&gt;</text>
<polyline fill="none" stroke="black" points="1317.38,-825.1 2019.08,-825.1 "/>
<text text-anchor="middle" x="1342.18" y="-808.5" font-family="Courier New" font-size="14.00">slot</text>
<polyline fill="none" stroke="black" points="1317.38,-800.3 1366.99,-800.3 "/>
<text text-anchor="middle" x="1342.18" y="-783.7" font-family="Courier New" font-size="14.00">3</text>
<polyline fill="none" stroke="black" points="1317.38,-775.5 1366.99,-775.5 "/>
<text text-anchor="middle" x="1342.18" y="-758.9" font-family="Courier New" font-size="14.00">4</text>
<polyline fill="none" stroke="black" points="1317.38,-750.7 1366.99,-750.7 "/>
<text text-anchor="middle" x="1342.18" y="-734.1" font-family="Courier New" font-size="14.00">5</text>
<polyline fill="none" stroke="black" points="1317.38,-725.9 1366.99,-725.9 "/>
<text text-anchor="middle" x="1342.18" y="-709.3" font-family="Courier New" font-size="14.00">6</text>
<polyline fill="none" stroke="black" points="1317.38,-701.1 1366.99,-701.1 "/>
<text text-anchor="middle" x="1342.18" y="-684.5" font-family="Courier New" font-size="14.00">7</text>
<polyline fill="none" stroke="black" points="1317.38,-676.3 1366.99,-676.3 "/>
<text text-anchor="middle" x="1342.18" y="-659.7" font-family="Courier New" font-size="14.00">8</text>
<polyline fill="none" stroke="black" points="1366.99,-651.5 1366.99,-825.1 "/>
<text text-anchor="middle" x="1693.04" y="-808.5" font-family="Courier New" font-size="14.00">type: variable (bytes)</text>
<polyline fill="none" stroke="black" points="1366.99,-800.3 2019.08,-800.3 "/>
<text text-anchor="middle" x="1442.2" y="-783.7" font-family="Courier New" font-size="14.00">unallocated (29)</text>
<polyline fill="none" stroke="black" points="1517.41,-775.5 1517.41,-800.3 "/>
<text text-anchor="middle" x="1617.82" y="-783.7" font-family="Courier New" font-size="14.00">uint8: paymentType (1)</text>
<polyline fill="none" stroke="black" points="1718.24,-775.5 1718.24,-800.3 "/>
<text text-anchor="middle" x="1797.65" y="-783.7" font-family="Courier New" font-size="14.00">bool: checked (1)</text>
<polyline fill="none" stroke="black" points="1877.06,-775.5 1877.06,-800.3 "/>
<text text-anchor="middle" x="1948.07" y="-783.7" font-family="Courier New" font-size="14.00">bool: valid (1)</text>
<polyline fill="none" stroke="black" points="1366.99,-775.5 2019.08,-775.5 "/>
<text text-anchor="middle" x="1693" y="-758.9" font-family="Courier New" font-size="14.00">uint256: amount (32)</text>
<polyline fill="none" stroke="black" points="1366.99,-750.7 2019.08,-750.7 "/>
<text text-anchor="middle" x="1693" y="-734.1" font-family="Courier New" font-size="14.00">uint256: finalAmount (32)</text>
<polyline fill="none" stroke="black" points="1366.99,-725.9 2019.08,-725.9 "/>
<text text-anchor="middle" x="1692.91" y="-709.3" font-family="Courier New" font-size="14.00">uint256: initialAmount (32)</text>
<polyline fill="none" stroke="black" points="1366.99,-701.1 2019.08,-701.1 "/>
<text text-anchor="middle" x="1517.2" y="-684.5" font-family="Courier New" font-size="14.00">unallocated (12)</text>
<polyline fill="none" stroke="black" points="1667.41,-676.3 1667.41,-701.1 "/>
<text text-anchor="middle" x="1842.82" y="-684.5" font-family="Courier New" font-size="14.00">address: receiver (20)</text>
<polyline fill="none" stroke="black" points="1366.99,-676.3 2019.08,-676.3 "/>
<text text-anchor="middle" x="1521.2" y="-659.7" font-family="Courier New" font-size="14.00">unallocated (12)</text>
<polyline fill="none" stroke="black" points="1675.41,-651.5 1675.41,-676.3 "/>
<text text-anchor="middle" x="1846.92" y="-659.7" font-family="Courier New" font-size="14.00">address: sender (20)</text>
</g>
<!-- 2 -->
<g id="node3" class="node">
<title>2</title>
<polygon fill="#f2f2f2" stroke="black" points="1317.38,-434.5 1317.38,-632.9 2019.08,-632.9 2019.08,-434.5 1317.38,-434.5"/>
<text text-anchor="middle" x="1668.23" y="-616.3" font-family="Courier New" font-size="14.00">payments &lt;&lt;Struct&gt;&gt;</text>
<polyline fill="none" stroke="black" points="1317.38,-608.1 2019.08,-608.1 "/>
<text text-anchor="middle" x="1342.18" y="-591.5" font-family="Courier New" font-size="14.00">slot</text>
<polyline fill="none" stroke="black" points="1317.38,-583.3 1366.99,-583.3 "/>
<text text-anchor="middle" x="1342.18" y="-566.7" font-family="Courier New" font-size="14.00">9</text>
<polyline fill="none" stroke="black" points="1317.38,-558.5 1366.99,-558.5 "/>
<text text-anchor="middle" x="1342.18" y="-541.9" font-family="Courier New" font-size="14.00">10</text>
<polyline fill="none" stroke="black" points="1317.38,-533.7 1366.99,-533.7 "/>
<text text-anchor="middle" x="1342.18" y="-517.1" font-family="Courier New" font-size="14.00">11</text>
<polyline fill="none" stroke="black" points="1317.38,-508.9 1366.99,-508.9 "/>
<text text-anchor="middle" x="1342.18" y="-492.3" font-family="Courier New" font-size="14.00">12</text>
<polyline fill="none" stroke="black" points="1317.38,-484.1 1366.99,-484.1 "/>
<text text-anchor="middle" x="1342.18" y="-467.5" font-family="Courier New" font-size="14.00">13</text>
<polyline fill="none" stroke="black" points="1317.38,-459.3 1366.99,-459.3 "/>
<text text-anchor="middle" x="1342.18" y="-442.7" font-family="Courier New" font-size="14.00">14</text>
<polyline fill="none" stroke="black" points="1366.99,-434.5 1366.99,-608.1 "/>
<text text-anchor="middle" x="1693.04" y="-591.5" font-family="Courier New" font-size="14.00">type: variable (bytes)</text>
<polyline fill="none" stroke="black" points="1366.99,-583.3 2019.08,-583.3 "/>
<text text-anchor="middle" x="1442.2" y="-566.7" font-family="Courier New" font-size="14.00">unallocated (29)</text>
<polyline fill="none" stroke="black" points="1517.41,-558.5 1517.41,-583.3 "/>
<text text-anchor="middle" x="1617.82" y="-566.7" font-family="Courier New" font-size="14.00">uint8: paymentType (1)</text>
<polyline fill="none" stroke="black" points="1718.24,-558.5 1718.24,-583.3 "/>
<text text-anchor="middle" x="1797.65" y="-566.7" font-family="Courier New" font-size="14.00">bool: checked (1)</text>
<polyline fill="none" stroke="black" points="1877.06,-558.5 1877.06,-583.3 "/>
<text text-anchor="middle" x="1948.07" y="-566.7" font-family="Courier New" font-size="14.00">bool: valid (1)</text>
<polyline fill="none" stroke="black" points="1366.99,-558.5 2019.08,-558.5 "/>
<text text-anchor="middle" x="1693" y="-541.9" font-family="Courier New" font-size="14.00">uint256: amount (32)</text>
<polyline fill="none" stroke="black" points="1366.99,-533.7 2019.08,-533.7 "/>
<text text-anchor="middle" x="1693" y="-517.1" font-family="Courier New" font-size="14.00">uint256: finalAmount (32)</text>
<polyline fill="none" stroke="black" points="1366.99,-508.9 2019.08,-508.9 "/>
<text text-anchor="middle" x="1692.91" y="-492.3" font-family="Courier New" font-size="14.00">uint256: initialAmount (32)</text>
<polyline fill="none" stroke="black" points="1366.99,-484.1 2019.08,-484.1 "/>
<text text-anchor="middle" x="1517.2" y="-467.5" font-family="Courier New" font-size="14.00">unallocated (12)</text>
<polyline fill="none" stroke="black" points="1667.41,-459.3 1667.41,-484.1 "/>
<text text-anchor="middle" x="1842.82" y="-467.5" font-family="Courier New" font-size="14.00">address: receiver (20)</text>
<polyline fill="none" stroke="black" points="1366.99,-459.3 2019.08,-459.3 "/>
<text text-anchor="middle" x="1521.2" y="-442.7" font-family="Courier New" font-size="14.00">unallocated (12)</text>
<polyline fill="none" stroke="black" points="1675.41,-434.5 1675.41,-459.3 "/>
<text text-anchor="middle" x="1846.92" y="-442.7" font-family="Courier New" font-size="14.00">address: sender (20)</text>
</g>
<!-- 3 -->
<g id="node4" class="node">
<title>3</title>
<polygon fill="#f2f2f2" stroke="black" points="1317.38,-217.5 1317.38,-415.9 2019.08,-415.9 2019.08,-217.5 1317.38,-217.5"/>
<text text-anchor="middle" x="1668.23" y="-399.3" font-family="Courier New" font-size="14.00">payments &lt;&lt;Struct&gt;&gt;</text>
<polyline fill="none" stroke="black" points="1317.38,-391.1 2019.08,-391.1 "/>
<text text-anchor="middle" x="1342.18" y="-374.5" font-family="Courier New" font-size="14.00">slot</text>
<polyline fill="none" stroke="black" points="1317.38,-366.3 1366.99,-366.3 "/>
<text text-anchor="middle" x="1342.18" y="-349.7" font-family="Courier New" font-size="14.00">39</text>
<polyline fill="none" stroke="black" points="1317.38,-341.5 1366.99,-341.5 "/>
<text text-anchor="middle" x="1342.18" y="-324.9" font-family="Courier New" font-size="14.00">40</text>
<polyline fill="none" stroke="black" points="1317.38,-316.7 1366.99,-316.7 "/>
<text text-anchor="middle" x="1342.18" y="-300.1" font-family="Courier New" font-size="14.00">41</text>
<polyline fill="none" stroke="black" points="1317.38,-291.9 1366.99,-291.9 "/>
<text text-anchor="middle" x="1342.18" y="-275.3" font-family="Courier New" font-size="14.00">42</text>
<polyline fill="none" stroke="black" points="1317.38,-267.1 1366.99,-267.1 "/>
<text text-anchor="middle" x="1342.18" y="-250.5" font-family="Courier New" font-size="14.00">43</text>
<polyline fill="none" stroke="black" points="1317.38,-242.3 1366.99,-242.3 "/>
<text text-anchor="middle" x="1342.18" y="-225.7" font-family="Courier New" font-size="14.00">44</text>
<polyline fill="none" stroke="black" points="1366.99,-217.5 1366.99,-391.1 "/>
<text text-anchor="middle" x="1693.04" y="-374.5" font-family="Courier New" font-size="14.00">type: variable (bytes)</text>
<polyline fill="none" stroke="black" points="1366.99,-366.3 2019.08,-366.3 "/>
<text text-anchor="middle" x="1442.2" y="-349.7" font-family="Courier New" font-size="14.00">unallocated (29)</text>
<polyline fill="none" stroke="black" points="1517.41,-341.5 1517.41,-366.3 "/>
<text text-anchor="middle" x="1617.82" y="-349.7" font-family="Courier New" font-size="14.00">uint8: paymentType (1)</text>
<polyline fill="none" stroke="black" points="1718.24,-341.5 1718.24,-366.3 "/>
<text text-anchor="middle" x="1797.65" y="-349.7" font-family="Courier New" font-size="14.00">bool: checked (1)</text>
<polyline fill="none" stroke="black" points="1877.06,-341.5 1877.06,-366.3 "/>
<text text-anchor="middle" x="1948.07" y="-349.7" font-family="Courier New" font-size="14.00">bool: valid (1)</text>
<polyline fill="none" stroke="black" points="1366.99,-341.5 2019.08,-341.5 "/>
<text text-anchor="middle" x="1693" y="-324.9" font-family="Courier New" font-size="14.00">uint256: amount (32)</text>
<polyline fill="none" stroke="black" points="1366.99,-316.7 2019.08,-316.7 "/>
<text text-anchor="middle" x="1693" y="-300.1" font-family="Courier New" font-size="14.00">uint256: finalAmount (32)</text>
<polyline fill="none" stroke="black" points="1366.99,-291.9 2019.08,-291.9 "/>
<text text-anchor="middle" x="1692.91" y="-275.3" font-family="Courier New" font-size="14.00">uint256: initialAmount (32)</text>
<polyline fill="none" stroke="black" points="1366.99,-267.1 2019.08,-267.1 "/>
<text text-anchor="middle" x="1517.2" y="-250.5" font-family="Courier New" font-size="14.00">unallocated (12)</text>
<polyline fill="none" stroke="black" points="1667.41,-242.3 1667.41,-267.1 "/>
<text text-anchor="middle" x="1842.82" y="-250.5" font-family="Courier New" font-size="14.00">address: receiver (20)</text>
<polyline fill="none" stroke="black" points="1366.99,-242.3 2019.08,-242.3 "/>
<text text-anchor="middle" x="1521.2" y="-225.7" font-family="Courier New" font-size="14.00">unallocated (12)</text>
<polyline fill="none" stroke="black" points="1675.41,-217.5 1675.41,-242.3 "/>
<text text-anchor="middle" x="1846.92" y="-225.7" font-family="Courier New" font-size="14.00">address: sender (20)</text>
</g>
<!-- 4 -->
<g id="node5" class="node">
<title>4</title>
<polygon fill="#f2f2f2" stroke="black" points="1317.38,-0.5 1317.38,-198.9 2019.08,-198.9 2019.08,-0.5 1317.38,-0.5"/>
<text text-anchor="middle" x="1668.23" y="-182.3" font-family="Courier New" font-size="14.00">payments &lt;&lt;Struct&gt;&gt;</text>
<polyline fill="none" stroke="black" points="1317.38,-174.1 2019.08,-174.1 "/>
<text text-anchor="middle" x="1342.18" y="-157.5" font-family="Courier New" font-size="14.00">slot</text>
<polyline fill="none" stroke="black" points="1317.38,-149.3 1366.99,-149.3 "/>
<text text-anchor="middle" x="1342.18" y="-132.7" font-family="Courier New" font-size="14.00">45</text>
<polyline fill="none" stroke="black" points="1317.38,-124.5 1366.99,-124.5 "/>
<text text-anchor="middle" x="1342.18" y="-107.9" font-family="Courier New" font-size="14.00">46</text>
<polyline fill="none" stroke="black" points="1317.38,-99.7 1366.99,-99.7 "/>
<text text-anchor="middle" x="1342.18" y="-83.1" font-family="Courier New" font-size="14.00">47</text>
<polyline fill="none" stroke="black" points="1317.38,-74.9 1366.99,-74.9 "/>
<text text-anchor="middle" x="1342.18" y="-58.3" font-family="Courier New" font-size="14.00">48</text>
<polyline fill="none" stroke="black" points="1317.38,-50.1 1366.99,-50.1 "/>
<text text-anchor="middle" x="1342.18" y="-33.5" font-family="Courier New" font-size="14.00">49</text>
<polyline fill="none" stroke="black" points="1317.38,-25.3 1366.99,-25.3 "/>
<text text-anchor="middle" x="1342.18" y="-8.7" font-family="Courier New" font-size="14.00">50</text>
<polyline fill="none" stroke="black" points="1366.99,-0.5 1366.99,-174.1 "/>
<text text-anchor="middle" x="1693.04" y="-157.5" font-family="Courier New" font-size="14.00">type: variable (bytes)</text>
<polyline fill="none" stroke="black" points="1366.99,-149.3 2019.08,-149.3 "/>
<text text-anchor="middle" x="1442.2" y="-132.7" font-family="Courier New" font-size="14.00">unallocated (29)</text>
<polyline fill="none" stroke="black" points="1517.41,-124.5 1517.41,-149.3 "/>
<text text-anchor="middle" x="1617.82" y="-132.7" font-family="Courier New" font-size="14.00">uint8: paymentType (1)</text>
<polyline fill="none" stroke="black" points="1718.24,-124.5 1718.24,-149.3 "/>
<text text-anchor="middle" x="1797.65" y="-132.7" font-family="Courier New" font-size="14.00">bool: checked (1)</text>
<polyline fill="none" stroke="black" points="1877.06,-124.5 1877.06,-149.3 "/>
<text text-anchor="middle" x="1948.07" y="-132.7" font-family="Courier New" font-size="14.00">bool: valid (1)</text>
<polyline fill="none" stroke="black" points="1366.99,-124.5 2019.08,-124.5 "/>
<text text-anchor="middle" x="1693" y="-107.9" font-family="Courier New" font-size="14.00">uint256: amount (32)</text>
<polyline fill="none" stroke="black" points="1366.99,-99.7 2019.08,-99.7 "/>
<text text-anchor="middle" x="1693" y="-83.1" font-family="Courier New" font-size="14.00">uint256: finalAmount (32)</text>
<polyline fill="none" stroke="black" points="1366.99,-74.9 2019.08,-74.9 "/>
<text text-anchor="middle" x="1692.91" y="-58.3" font-family="Courier New" font-size="14.00">uint256: initialAmount (32)</text>
<polyline fill="none" stroke="black" points="1366.99,-50.1 2019.08,-50.1 "/>
<text text-anchor="middle" x="1517.2" y="-33.5" font-family="Courier New" font-size="14.00">unallocated (12)</text>
<polyline fill="none" stroke="black" points="1667.41,-25.3 1667.41,-50.1 "/>
<text text-anchor="middle" x="1842.82" y="-33.5" font-family="Courier New" font-size="14.00">address: receiver (20)</text>
<polyline fill="none" stroke="black" points="1366.99,-25.3 2019.08,-25.3 "/>
<text text-anchor="middle" x="1521.2" y="-8.7" font-family="Courier New" font-size="14.00">unallocated (12)</text>
<polyline fill="none" stroke="black" points="1675.41,-0.5 1675.41,-25.3 "/>
<text text-anchor="middle" x="1846.92" y="-8.7" font-family="Courier New" font-size="14.00">address: sender (20)</text>
</g>
<!-- 5&#45;&gt;1 -->
<g id="edge2" class="edge">
<title>5:16&#45;&gt;1</title>
<path fill="none" stroke="black" d="M1281.38,-474.7C1357.74,-474.7 1265.82,-586.37 1317.38,-642.7 1317.8,-643.16 1318.22,-643.61 1318.64,-644.07"/>
<polygon fill="black" stroke="black" points="1316.17,-646.54 1325.66,-651.26 1321.18,-641.65 1316.17,-646.54"/>
</g>
<!-- 5&#45;&gt;2 -->
<g id="edge3" class="edge">
<title>5:17&#45;&gt;2</title>
<path fill="none" stroke="black" d="M1281.38,-449.7C1289.88,-449.7 1298.46,-449.9 1307.1,-450.27"/>
<polygon fill="black" stroke="black" points="1307.09,-453.78 1317.26,-450.79 1307.45,-446.79 1307.09,-453.78"/>
</g>
<!-- 5&#45;&gt;3 -->
<g id="edge4" class="edge">
<title>5:19&#45;&gt;3</title>
<path fill="none" stroke="black" d="M1281.38,-399.7C1289.88,-399.7 1298.45,-399.51 1307.09,-399.13"/>
<polygon fill="black" stroke="black" points="1307.43,-402.62 1317.24,-398.62 1307.08,-395.63 1307.43,-402.62"/>
</g>
<!-- 5&#45;&gt;4 -->
<g id="edge5" class="edge">
<title>5:20&#45;&gt;4</title>
<path fill="none" stroke="black" d="M1281.38,-375.7C1357.74,-375.7 1265.82,-264.03 1317.38,-207.7 1317.8,-207.24 1318.22,-206.79 1318.64,-206.33"/>
<polygon fill="black" stroke="black" points="1321.18,-208.75 1325.66,-199.14 1316.17,-203.86 1321.18,-208.75"/>
</g>
</g>
</svg>
